# xmcd
#
# Track frame offsets:
#	182
#	18520
#	37120
#	54670
#	74320
#	91645
#	110170
#	130120
#	146995
#	164395
#	183857
#	200620
#	215845
#
# Disc length: 3090 seconds
#
# Revision: 5
# Processed by: cddbd v1.5.2PL0 Copyright (c) Steve Scherf et al.
# Submitted via: audiograbber 1.83.01
#
DISCID=c60c100d
DTITLE=Jeff Lang - Ravenswood
DYEAR=1994
DGENRE=Blues
TTITLE0=Scream
TTITLE1=Winter Sun
TTITLE2=Daddy's Alright
TTITLE3=7th of November
TTITLE4=Mr God
TTITLE5=What's in a Name
TTITLE6=Ravenswood
TTITLE7=Heaven in a Cup
TTITLE8=The Girl is Mine
TTITLE9=Feels the Same
TTITLE10=Master Plan
TTITLE11=A Little Rain
TTITLE12=Bells, Beach and Candle
EXTD=
EXTT0=
EXTT1=
EXTT2=
EXTT3=
EXTT4=
EXTT5=
EXTT6=
EXTT7=
EXTT8=
EXTT9=
EXTT10=
EXTT11=
EXTT12=
PLAYORDER=
